<?xml version="1.0" encoding="utf-8"?>
<!-- Generator: Adobe Illustrator 16.0.0, SVG Export Plug-In . SVG Version: 6.00 Build 0)  -->
<!DOCTYPE svg PUBLIC "-//W3C//DTD SVG 1.1//EN" "http://www.w3.org/Graphics/SVG/1.1/DTD/svg11.dtd">
<svg version="1.1" id="Layer_1" xmlns="http://www.w3.org/2000/svg" xmlns:xlink="http://www.w3.org/1999/xlink" x="0px" y="0px"
	 width="100px" height="100px" viewBox="0 0 100 100" enable-background="new 0 0 100 100" xml:space="preserve">
<g>
	<path fill="#8BC53F" d="M79.28,44.219c0.309,0.23,0.656,0.409,1.021,0.527c0.526,0.163,1.093,0.196,1.677,0.078
		c0.98-0.201,1.766-0.824,2.22-1.626c-0.734-0.561-1.698-0.813-2.686-0.608c-0.448,0.093-0.858,0.272-1.211,0.517
		C79.88,43.397,79.532,43.779,79.28,44.219z"/>
	<path fill="#8BC53F" d="M51.777,25.662c0.471-0.322,0.857-0.765,1.11-1.29c0.156-0.331,0.269-0.689,0.313-1.071
		c0.073-0.656-0.045-1.287-0.313-1.842c-0.141-0.286-0.32-0.55-0.527-0.785c-0.634,0.438-1.11,1.082-1.329,1.85
		c-0.051,0.163-0.084,0.336-0.106,0.513c-0.051,0.446-0.012,0.877,0.106,1.281C51.172,24.824,51.43,25.284,51.777,25.662z"/>
	<path fill="#8BC53F" d="M52.226,34.037c-0.426,0.213-0.83,0.471-1.194,0.779c-0.92,0.763-1.62,1.806-1.951,3.042
		c-0.045,0.154-0.078,0.312-0.101,0.463c-0.141,0.734-0.135,1.467,0,2.17c0.146,0.808,0.459,1.57,0.919,2.249
		c0.398-0.196,0.779-0.443,1.133-0.724c0.818-0.667,1.475-1.554,1.856-2.607c0.062-0.157,0.111-0.319,0.156-0.488
		c0.325-1.228,0.247-2.473-0.156-3.583C52.719,34.878,52.5,34.44,52.226,34.037z"/>
	<path fill="#8BC53F" d="M52.758,28.267c-0.325,1.211-0.258,2.434,0.13,3.527c0.168,0.482,0.397,0.934,0.678,1.352
		c0.415-0.205,0.808-0.451,1.167-0.746c0.936-0.766,1.643-1.822,1.984-3.073c0.466-1.738,0.112-3.499-0.813-4.884
		c-0.421,0.208-0.808,0.459-1.172,0.751c-0.824,0.679-1.476,1.576-1.845,2.641C52.843,27.975,52.792,28.121,52.758,28.267z"/>
	<path fill="#8BC53F" d="M60.479,27.204c0.426-0.816,0.516-1.819,0.157-2.75c-0.37-0.931-1.11-1.606-1.985-1.926
		c-0.426,0.821-0.51,1.825-0.151,2.759C58.87,26.217,59.604,26.893,60.479,27.204z"/>
	<path fill="#8BC53F" d="M45.615,26.243c0.05-1.001-0.348-1.915-1.016-2.554c-0.723,0.569-1.211,1.45-1.256,2.442
		c-0.05,1.006,0.348,1.92,1.021,2.563C45.088,28.121,45.575,27.241,45.615,26.243z"/>
	<path fill="#8BC53F" d="M34.585,35.893c0.729,0.442,1.531,0.724,2.355,0.83c0.124,0.017,0.247,0.027,0.376,0.036
		c0.241-1.186,0.129-2.444-0.376-3.591c-0.185-0.426-0.426-0.844-0.723-1.231c-0.46-0.608-1.021-1.107-1.632-1.48
		c-0.835-0.508-1.772-0.805-2.725-0.864c-0.342,1.632,0,3.39,1.094,4.819C33.414,35.021,33.975,35.517,34.585,35.893z"/>
	<path fill="#8BC53F" d="M36.94,29.512c0.404,0.656,1.015,1.127,1.71,1.385c0.432-0.824,0.516-1.825,0.157-2.753
		c-0.353-0.897-1.043-1.548-1.867-1.881c-0.039-0.017-0.073-0.031-0.112-0.045c-0.432,0.819-0.521,1.82-0.157,2.753
		C36.75,29.164,36.84,29.343,36.94,29.512z"/>
	<path fill="#8BC53F" d="M42.716,38.158c0.185-0.169,0.354-0.348,0.516-0.539c0.908-1.076,1.441-2.492,1.396-4.02
		c-0.039-1.399-0.561-2.669-1.396-3.662c-0.241-0.286-0.505-0.543-0.791-0.779c-1.222,1.141-1.968,2.775-1.912,4.564
		C40.585,35.522,41.426,37.109,42.716,38.158z"/>
	<path fill="#8BC53F" d="M48.979,32.399c0.353,0.294,0.745,0.541,1.166,0.746c0.42-0.631,0.724-1.34,0.886-2.094
		c0.168-0.799,0.18-1.64,0-2.481c-0.022-0.104-0.045-0.202-0.073-0.303c-0.336-1.256-1.048-2.31-1.979-3.073
		c-0.365-0.292-0.752-0.543-1.172-0.751c-0.926,1.385-1.279,3.146-0.813,4.884C47.331,30.577,48.043,31.634,48.979,32.399z"/>
	<path fill="#8BC53F" d="M59.011,32.158c-0.466,1.738-0.118,3.502,0.813,4.878c0.421-0.201,0.808-0.448,1.166-0.745
		c0.937-0.763,1.644-1.817,1.979-3.067c0.466-1.738,0.118-3.502-0.808-4.887c-0.42,0.205-0.813,0.457-1.172,0.749
		C60.059,29.851,59.347,30.902,59.011,32.158z"/>
	<path fill="#8BC53F" d="M74.29,45.789c-0.18,0.084-0.365,0.174-0.539,0.274c-0.129,0.073-0.252,0.151-0.375,0.228
		c-1.346,0.908-2.221,2.288-2.518,3.787c0.802,0.281,1.659,0.388,2.518,0.309c0.309-0.027,0.611-0.084,0.914-0.157
		c0.51-0.134,1.015-0.336,1.491-0.61c1.564-0.887,2.568-2.381,2.894-4.015C77.278,45.125,75.72,45.155,74.29,45.789z"/>
	<path fill="#8BC53F" d="M74.29,40.779c-0.382,0.619-0.65,1.295-0.791,1.999c0.258,0.09,0.521,0.162,0.791,0.216
		c1.368,0.277,2.831,0.075,4.132-0.67c0.769-0.438,1.396-1.016,1.879-1.688c0.505-0.695,0.853-1.491,1.015-2.326
		c-0.331-0.115-0.667-0.202-1.015-0.259c-1.301-0.207-2.675,0.009-3.914,0.713C75.501,39.273,74.794,39.969,74.29,40.779z"/>
	<path fill="#8BC53F" d="M73.376,33.226c0.309-0.031,0.616-0.106,0.914-0.232c0.123-0.05,0.246-0.112,0.364-0.177
		c0.875-0.491,1.436-1.32,1.626-2.223c-0.634-0.23-1.323-0.264-1.99-0.079c-0.258,0.067-0.511,0.174-0.752,0.309
		c-0.05,0.034-0.106,0.067-0.162,0.098c-0.779,0.502-1.29,1.278-1.47,2.133C72.378,33.218,72.877,33.28,73.376,33.226z"/>
	<path fill="#8BC53F" d="M74.29,36.075c-0.37,0.552-0.556,1.193-0.556,1.839c0.186,0.03,0.37,0.039,0.556,0.03
		c0.745-0.017,1.485-0.288,2.091-0.815c0.752-0.65,1.139-1.584,1.139-2.507c-0.92-0.131-1.89,0.129-2.641,0.788
		C74.648,35.609,74.452,35.831,74.29,36.075z"/>
	<path fill="#8BC53F" d="M64.578,28.536c0.566-0.208,1.065-0.566,1.452-1.049c0.213-0.264,0.387-0.561,0.511-0.892
		c0.358-0.934,0.263-1.932-0.169-2.753c-0.117,0.045-0.229,0.09-0.342,0.151c-0.65,0.325-1.2,0.863-1.525,1.564
		c-0.033,0.073-0.067,0.146-0.095,0.219c-0.337,0.88-0.275,1.811,0.095,2.599C64.527,28.429,64.556,28.48,64.578,28.536z"/>
	<path fill="#8BC53F" d="M66.03,30.451c-0.724,1.321-0.897,2.829-0.572,4.219c0.191-0.017,0.382-0.045,0.572-0.078
		c0.729-0.138,1.424-0.409,2.063-0.813c0.628-0.393,1.194-0.92,1.66-1.559c1.054-1.455,1.356-3.224,0.976-4.85
		c-0.926,0.084-1.834,0.387-2.636,0.886c-0.628,0.398-1.2,0.92-1.659,1.562C66.282,30.022,66.148,30.235,66.03,30.451z"/>
	<path fill="#8BC53F" d="M67.606,37.154c-0.803,0.805-1.329,1.783-1.576,2.814c-0.14,0.598-0.196,1.211-0.151,1.819
		c0.051,0.003,0.101,0.006,0.151,0.009c0.695,0.028,1.396-0.062,2.063-0.274c0.886-0.281,1.716-0.777,2.417-1.48
		c1.267-1.271,1.839-2.978,1.721-4.638c-1.457-0.101-2.943,0.34-4.138,1.307C67.926,36.846,67.763,36.997,67.606,37.154z"/>
	<path fill="#8BC53F" d="M43.232,39.784c-0.281-0.214-0.583-0.382-0.914-0.499c-0.426,0.824-0.516,1.819-0.151,2.753
		c0.224,0.583,0.6,1.068,1.065,1.424c0.274,0.213,0.583,0.382,0.908,0.499c0.437-0.821,0.516-1.822,0.151-2.753
		C44.067,40.622,43.697,40.143,43.232,39.784z"/>
	<path fill="#8BC53F" d="M65.313,62.021c-0.246-0.246-0.516-0.445-0.808-0.594c-0.555-0.292-1.172-0.418-1.777-0.376
		c-0.062,0.931,0.253,1.876,0.971,2.579c0.24,0.241,0.516,0.443,0.807,0.595c0.477,0.249,1.004,0.375,1.525,0.381
		c0.084,0,0.168-0.006,0.247-0.006c0.039-0.516-0.045-1.031-0.247-1.514C65.868,62.697,65.627,62.339,65.313,62.021z"/>
	<path fill="#8BC53F" d="M33.38,42.164c0.381,0.322,0.779,0.597,1.206,0.808c0.746,0.381,1.548,0.592,2.355,0.639
		c0.398,0.025,0.796,0.006,1.189-0.047c-0.006-1.262-0.404-2.513-1.189-3.561c-0.252-0.337-0.544-0.653-0.875-0.939
		c-0.454-0.396-0.953-0.709-1.48-0.945c-1.037-0.462-2.175-0.61-3.269-0.457C31.322,39.327,32.029,40.983,33.38,42.164z"/>
	<path fill="#8BC53F" d="M29.954,60.592c-0.129,0.034-0.264,0.067-0.387,0.118c-0.651,0.229-1.184,0.645-1.559,1.16
		c-0.174,0.235-0.314,0.494-0.42,0.76c0.135,0.076,0.275,0.141,0.42,0.199c0.605,0.232,1.278,0.292,1.946,0.146
		c0.129-0.033,0.258-0.067,0.387-0.111c0.942-0.343,1.637-1.063,1.968-1.932C31.614,60.541,30.772,60.407,29.954,60.592z"/>
	<path fill="#8BC53F" d="M78.686,60.334c-0.897-0.426-1.9-0.415-2.753-0.045c0.252,0.897,0.869,1.677,1.777,2.108
		c0.841,0.398,1.771,0.415,2.591,0.112c0.056-0.02,0.112-0.042,0.168-0.067c-0.045-0.157-0.101-0.309-0.168-0.457
		C79.986,61.287,79.432,60.688,78.686,60.334z"/>
	<path fill="#8BC53F" d="M80.301,50.614c-0.151-0.048-0.303-0.081-0.466-0.109c-0.986-0.154-1.945,0.14-2.657,0.734
		c0.499,0.785,1.317,1.362,2.304,1.525c0.281,0.045,0.55,0.05,0.819,0.025c0.684-0.06,1.323-0.334,1.839-0.766
		C81.725,51.368,81.08,50.855,80.301,50.614z"/>
	<path fill="#8BC53F" d="M81.702,46.813c-0.516,0.051-0.986,0.219-1.401,0.468c-0.393,0.238-0.724,0.55-0.987,0.914
		c0.286,0.275,0.623,0.494,0.987,0.65c0.499,0.205,1.054,0.298,1.626,0.244c0.998-0.098,1.845-0.637,2.377-1.388
		C83.637,47.067,82.694,46.714,81.702,46.813z"/>
	<path fill="#8BC53F" d="M22.07,59.005c-0.757,0-1.48,0.141-2.145,0.393c-0.917,0.354-1.727,0.926-2.361,1.654
		c0.634,0.724,1.444,1.301,2.361,1.654c0.665,0.255,1.388,0.4,2.145,0.4c1.564,0,2.989-0.605,4.054-1.589
		c0.163-0.149,0.308-0.304,0.454-0.466c-0.146-0.163-0.292-0.316-0.454-0.466C25.059,59.6,23.635,59.005,22.07,59.005z"/>
	<path fill="#8BC53F" d="M77.289,53.967c-1.177,0.233-2.197,0.788-2.999,1.564c-0.348,0.34-0.656,0.721-0.914,1.136
		c-0.039,0.062-0.073,0.123-0.106,0.183c0.039,0.024,0.067,0.053,0.106,0.081c0.286,0.213,0.594,0.397,0.914,0.555
		c1.132,0.561,2.456,0.769,3.796,0.502c0.818-0.16,1.564-0.485,2.215-0.925c0.745-0.514,1.362-1.181,1.806-1.948
		c-0.539-0.424-1.149-0.746-1.806-0.965C79.358,53.841,78.327,53.763,77.289,53.967z"/>
	<path fill="#8BC53F" d="M73.376,59.129c-0.993-0.74-2.221-1.172-3.544-1.172c-0.605,0-1.188,0.089-1.738,0.258
		c-0.763,0.232-1.464,0.61-2.063,1.11c-0.252,0.207-0.487,0.437-0.706,0.689c0.219,0.246,0.454,0.477,0.706,0.684
		c0.6,0.494,1.301,0.875,2.063,1.104c0.55,0.163,1.133,0.256,1.738,0.256c1.323,0,2.551-0.435,3.544-1.17
		c0.33-0.24,0.639-0.521,0.914-0.829l0.045-0.045l-0.045-0.051C74.015,59.655,73.706,59.375,73.376,59.129z"/>
	<path fill="#8BC53F" d="M24.807,42.305c0.415,0.288,0.864,0.519,1.318,0.684c0.611,0.228,1.25,0.351,1.884,0.364
		c0.566,0.02,1.122-0.045,1.666-0.182c-0.146-1.299-0.712-2.54-1.666-3.511c-0.264-0.269-0.561-0.516-0.886-0.74
		c-0.32-0.218-0.65-0.403-0.998-0.549c-1.239-0.544-2.607-0.634-3.869-0.312C22.44,39.717,23.321,41.284,24.807,42.305z"/>
	<path fill="#8BC53F" d="M28.121,32.865c0.342,0.875,1.026,1.531,1.833,1.862c0.045,0.02,0.095,0.033,0.146,0.056
		c0.432-0.818,0.516-1.819,0.157-2.75c-0.084-0.216-0.185-0.413-0.303-0.598c-0.409-0.628-1.004-1.082-1.677-1.329
		c-0.112,0.221-0.208,0.454-0.269,0.695c-0.146,0.552-0.157,1.144,0,1.716C28.037,32.635,28.076,32.75,28.121,32.865z"/>
	<path fill="#8BC53F" d="M25.435,35.792c0.213,0.162,0.449,0.297,0.69,0.403c0.605,0.261,1.256,0.336,1.884,0.232
		c0.04-0.008,0.073-0.014,0.106-0.022c-0.011-0.227-0.05-0.451-0.106-0.67c-0.185-0.673-0.589-1.301-1.183-1.763
		c-0.224-0.171-0.454-0.306-0.701-0.412c-0.634-0.278-1.329-0.345-1.991-0.208C24.195,34.274,24.639,35.175,25.435,35.792z"/>
	<path fill="#8BC53F" d="M29.831,45.077c0.028,0.235,0.067,0.465,0.124,0.689c0.319,1.402,1.149,2.681,2.428,3.555
		c0.684,0.472,1.436,0.785,2.204,0.942c0.785,0.157,1.587,0.151,2.355,0c0.106-0.022,0.213-0.045,0.314-0.073
		c-0.05-0.454-0.157-0.902-0.314-1.334c-0.404-1.145-1.166-2.176-2.231-2.913c-0.045-0.031-0.084-0.059-0.124-0.084
		c-1.418-0.923-3.095-1.169-4.631-0.811C29.909,45.061,29.87,45.068,29.831,45.077z"/>
	<path fill="#8BC53F" d="M21.397,48.211c1.436,0.987,3.157,1.265,4.727,0.903c0.05-0.012,0.095-0.022,0.146-0.034
		c-0.034-0.263-0.079-0.521-0.146-0.779c-0.336-1.362-1.155-2.612-2.406-3.468c-1.155-0.796-2.495-1.127-3.793-1.04
		c-0.365,0.022-0.726,0.078-1.08,0.171c0.112,1.001,0.482,1.966,1.08,2.801C20.321,47.314,20.809,47.805,21.397,48.211z"/>
	<path fill="#8BC53F" d="M26.125,51.2c-1.463-0.151-2.894,0.244-4.043,1.051c0.763,1.486,2.131,2.642,3.875,3.073
		c0.056,0.017,0.112,0.028,0.168,0.042c0.639,0.138,1.267,0.165,1.884,0.104c0.679-0.07,1.34-0.255,1.946-0.547
		c0.303-0.146,0.589-0.311,0.863-0.51c-0.229-0.454-0.527-0.878-0.863-1.259c-0.538-0.595-1.194-1.091-1.946-1.438
		c-0.336-0.157-0.695-0.28-1.065-0.376C26.668,51.272,26.399,51.228,26.125,51.2z"/>
	<path fill="#8BC53F" d="M18.734,51.732c0.415,0.031,0.818-0.011,1.191-0.112c0.53-0.156,1.012-0.437,1.404-0.824
		c-0.359-0.479-0.841-0.863-1.404-1.099c-0.312-0.135-0.648-0.219-1.007-0.244c-0.989-0.087-1.923,0.286-2.59,0.937
		C16.878,51.133,17.742,51.646,18.734,51.732z"/>
	<path fill="#8BC53F" d="M19.926,55.29c0.07-0.087,0.132-0.182,0.188-0.283c-0.062-0.05-0.123-0.089-0.188-0.14
		c-0.701-0.482-1.579-0.701-2.481-0.533c-0.987,0.18-1.789,0.78-2.265,1.576c0.729,0.577,1.688,0.853,2.675,0.673
		C18.72,56.423,19.44,55.943,19.926,55.29z"/>
	<path fill="#006838" d="M74.29,51.057c-0.286,0.188-0.589,0.367-0.914,0.539c-1.475,0.782-3.319,1.373-5.282,1.937
		c-0.679,0.193-1.368,0.382-2.063,0.578c-0.443,0.123-0.892,0.246-1.334,0.375c0.381-0.678,0.824-1.385,1.334-2.107
		c0.6-0.842,1.284-1.693,2.063-2.501c0.83-0.853,1.761-1.66,2.798-2.344c-0.925,0.319-1.861,0.829-2.798,1.466
		c-0.689,0.469-1.385,1.013-2.063,1.599c-0.516,0.445-1.026,0.922-1.525,1.404c-1.188,1.157-2.304,2.399-3.308,3.589l-0.208,0.072
		c-2.495,0.914-4.749,2.083-6.257,3.838c-0.511,0.598-0.937,1.265-1.257,2.011c-0.045-2.523,0.433-4.632,1.257-6.423
		c1.379-2.986,3.723-5.077,6.257-6.659c1.161-0.718,2.355-1.334,3.516-1.878c0.517-0.247,1.026-0.477,1.525-0.695
		c0.724-0.319,1.419-0.617,2.063-0.902c2.311-1.023,3.964-1.885,3.964-3.062c-1.183,0.986-2.557,1.466-3.964,1.766
		c-0.684,0.148-1.379,0.258-2.063,0.359c-0.516,0.084-1.031,0.156-1.525,0.252c-0.566,0.104-1.115,0.229-1.626,0.403
		c1.352-4.06,1.828-5.901,0.556-9.739c0,4.918-0.611,7.517-2.445,9.655c-0.438,0.508-0.941,0.993-1.524,1.475
		c-1.279,1.049-3.09,2.03-4.732,3.367c-0.656,0.536-1.284,1.13-1.845,1.803c-0.112,0.135-0.208,0.264-0.314,0.398
		c0-0.838,0.118-1.638,0.314-2.411c0.392-1.542,1.099-2.983,1.845-4.424c1.884-3.64,4.02-7.317,2.019-12.79
		c-0.236,3.316-1.061,5.652-2.019,7.559c-0.595,1.183-1.251,2.203-1.845,3.179c-0.707,1.158-1.335,2.266-1.705,3.53l-0.151-0.124
		c-0.808-0.647-1.486-1.286-2.052-1.903c-3.533-3.854-2.871-7.323-2.114-12.655c-4.446,13.342,2.086,11.149,2.086,21.437
		c-2.137-2.784-4.116-4.75-5.719-6.731c-2.434-3.003-4.015-6.056-4.015-12.064c-1.356,6.769,1.133,10.508,4.015,14.534
		c2.209,3.095,4.648,6.364,5.748,11.315c0.201,0.922,0.358,1.897,0.459,2.946c-0.156-0.177-0.308-0.351-0.459-0.521
		c-1.896-2.097-3.757-3.682-5.748-5.083c-0.325-0.225-0.65-0.448-0.981-0.667c-1.845-3.521-2.153-7.609-5.31-10.99
		c-0.23-0.252-0.477-0.499-0.746-0.737c0.28,0.403,0.527,0.813,0.746,1.226c1.677,3.075,1.991,6.207,3.095,9.095
		c-0.987-0.598-2.007-1.191-3.095-1.817c-0.757-0.438-1.542-0.889-2.355-1.368c-1.436-0.835-2.972-1.755-4.631-2.814
		c-0.477-0.303-0.953-0.611-1.447-0.937c0.017,0.869,0.578,1.686,1.447,2.489c1.177,1.088,2.921,2.156,4.631,3.298
		c0.813,0.541,1.626,1.099,2.355,1.688c0.993,0.79,1.851,1.632,2.406,2.548c-0.443-0.146-1.29-0.345-2.406-0.552
		c-0.689-0.138-1.491-0.272-2.355-0.404c-1.418-0.213-3.017-0.403-4.631-0.532c-0.65-0.051-1.301-0.093-1.946-0.118
		c-0.633-0.027-1.267-0.039-1.884-0.039c-2.58,0.012-4.884,0.309-6.199,1.11c-0.064,0.039-0.129,0.079-0.191,0.123h0.191
		c2.117,0.006,4.191,0.096,6.199,0.292c0.639,0.056,1.261,0.129,1.884,0.213c0.656,0.087,1.307,0.186,1.946,0.297
		c1.615,0.292,3.168,0.665,4.631,1.139c0.813,0.264,1.598,0.555,2.355,0.881c2.49,1.076,4.626,2.503,6.292,4.362
		c1.424,1.598,2.495,3.516,3.128,5.798c0.382,1.388,0.202,7.132-0.808,14.067c-0.067,0.472-0.14,0.948-0.219,1.431
		c1.554,0.129,3.112,0.201,4.666,0.201c2.276,0,4.553-0.146,6.813-0.426c-0.067-0.488-0.141-0.97-0.208-1.427
		c-0.941-6.322-1.665-10.04-1.872-12.327c-0.063-0.724-0.079-1.302-0.034-1.638c0.012-0.078,0.022-0.154,0.034-0.229
		c0.886-6.067,3.336-9.081,6.257-10.923c1.122-0.707,2.316-1.242,3.516-1.705c0.511-0.202,1.021-0.387,1.525-0.569
		c0.701-0.249,1.391-0.496,2.063-0.754c2.053-0.779,3.937-1.693,5.282-3.342c0.342-0.409,0.65-0.872,0.914-1.385
		c0.207-0.406,0.397-0.847,0.555-1.323C74.671,50.796,74.486,50.928,74.29,51.057z"/>
	<path fill-rule="evenodd" clip-rule="evenodd" fill="#006838" d="M50,14.299c-23.505,0-42.564,15.563-42.564,34.758
		c0,17.107,15.145,31.322,35.079,34.215c0.062-0.477,0.123-0.936,0.179-1.388C23.45,79.087,8.837,65.456,8.837,49.058
		c0-18.425,18.431-33.362,41.163-33.362c22.73,0,41.161,14.937,41.161,33.362c0,15.802-13.563,29.028-31.764,32.477
		c0.067,0.443,0.14,0.909,0.213,1.383c18.873-3.561,32.953-17.365,32.953-33.859C92.563,29.862,73.505,14.299,50,14.299z"/>
	<path fill-rule="evenodd" clip-rule="evenodd" fill="#8BC53F" d="M88.386,40.832c-2.371-7.151-7.608-12.936-13.911-16.905
		c-7.272-4.584-15.913-6.79-24.475-6.79c-8.563,0-17.203,2.206-24.476,6.79c-6.3,3.97-11.54,9.754-13.911,16.905
		c-0.88,2.658-1.332,5.423-1.332,8.226c0,2.799,0.452,5.568,1.334,8.227c2.372,7.148,7.609,12.93,13.909,16.905
		c5.248,3.303,11.203,5.366,17.326,6.263c0.056-0.496,0.101-0.979,0.14-1.438c-5.899-0.872-11.641-2.863-16.692-6.048
		c-6.017-3.79-11.052-9.313-13.312-16.138c-0.835-2.509-1.262-5.13-1.262-7.771c0-2.646,0.426-5.265,1.262-7.773
		c2.26-6.827,7.295-12.345,13.312-16.138c7.037-4.438,15.414-6.566,23.702-6.566c8.287,0,16.664,2.128,23.706,6.566
		c6.012,3.793,11.047,9.311,13.312,16.14c0.83,2.507,1.262,5.125,1.262,7.771c0,2.642-0.432,5.263-1.262,7.771
		c-2.265,6.824-7.3,12.348-13.312,16.138c-4.502,2.837-9.543,4.727-14.763,5.725c0.078,0.449,0.151,0.926,0.229,1.422
		c5.405-1.029,10.637-2.986,15.302-5.924c6.303-3.976,11.54-9.757,13.911-16.905c0.881-2.658,1.335-5.428,1.335-8.227
		C89.721,46.255,89.267,43.49,88.386,40.832z"/>
	<path fill="#8BC53F" d="M93.758,38.842c-2.826-8.332-8.865-15.111-16.238-19.76c-8.187-5.158-17.876-7.673-27.52-7.673
		c-9.645,0-19.328,2.515-27.521,7.673C15.106,23.73,9.07,30.51,6.244,38.842c-1.116,3.291-1.69,6.737-1.69,10.216
		c0,3.477,0.575,6.925,1.69,10.217c2.826,8.332,8.862,15.111,16.235,19.76c5.944,3.739,12.684,6.086,19.614,7.093
		c0.078-0.482,0.157-0.959,0.224-1.427c-6.746-0.979-13.289-3.25-19.064-6.889c-7.096-4.469-12.924-10.979-15.644-18.997
		c-1.065-3.148-1.615-6.432-1.615-9.757c0-3.324,0.55-6.607,1.615-9.756c2.72-8.019,8.548-14.528,15.644-19
		C31.205,15.286,40.63,12.858,50,12.858c9.375,0,18.795,2.428,26.751,7.443c7.094,4.472,12.925,10.981,15.639,19
		c1.071,3.148,1.615,6.432,1.615,9.756c0,3.325-0.544,6.608-1.615,9.757c-2.714,8.019-8.545,14.528-15.639,18.997
		c-5.164,3.252-10.945,5.405-16.928,6.532c0.073,0.457,0.141,0.934,0.207,1.424c6.186-1.149,12.156-3.375,17.489-6.733
		c7.373-4.648,13.412-11.428,16.238-19.76c1.115-3.292,1.688-6.74,1.688-10.217C95.445,45.579,94.873,42.133,93.758,38.842z"/>
</g>
</svg>
